<svg xmlns="http://www.w3.org/2000/svg" viewBox="0 0 512 512">
  <defs>
    <linearGradient id="bg" x1="0%" x2="100%" y1="0%" y2="100%">
      <stop offset="0%" stop-color="#88a76f" />
      <stop offset="100%" stop-color="#d2b26e" />
    </linearGradient>
  </defs>
  <rect width="512" height="512" rx="120" fill="url(#bg)" />
  <path d="M142 332c0-97 45-171 114-171 70 0 114 74 114 171 0 18-2 35-6 51-21-14-41-25-63-32l-5-58c16-12 27-32 27-54 0-37-30-67-67-67s-67 30-67 67c0 22 11 42 27 54l-5 58c-22 7-43 18-63 32-4-16-6-33-6-51Z" fill="#2f2619" opacity=".15"/>
  <path d="M117 139c18-35 53-57 84-57 6 0 17 2 24 5-16 18-32 52-32 88-27-2-55-10-76-36Zm278 0c-18-35-53-57-84-57-6 0-17 2-24 5 16 18 32 52 32 88 27-2 55-10 76-36Z" fill="#5d4120"/>
  <path d="M256 131c-57 0-103 53-103 129 0 73 45 132 103 132s103-59 103-132c0-76-46-129-103-129Zm-34 112c-12 0-22-10-22-22s10-22 22-22 22 10 22 22-10 22-22 22Zm68 0c-12 0-22-10-22-22s10-22 22-22 22 10 22 22-10 22-22 22Zm-94 75c18 25 40 38 60 38s42-13 60-38c-20-8-39-12-60-12s-40 4-60 12Z" fill="#3e2e1b"/>
  <circle cx="222" cy="221" r="10" fill="#f2eee6"/>
  <circle cx="290" cy="221" r="10" fill="#f2eee6"/>
</svg>
